# Blender v2.77 (sub 0) OBJ File: ''
# www.blender.org
o Grid
v 7.454486 12.126270 -2.244550
v 5.232264 12.126270 -2.244550
v 3.010042 12.126270 -2.244550
v 0.787819 12.126270 -2.244550
v -1.434403 12.126270 -2.244550
v -3.656625 12.126270 -2.244550
v -5.878848 12.126270 -2.244550
v -8.101070 12.126270 -2.244550
v -10.323293 12.126270 -2.244550
v -12.545514 12.126270 -2.244550
v 7.454486 9.904048 -2.244550
v 5.232264 9.904048 -2.244550
v 3.010042 9.904048 -2.244550
v 0.787819 9.904048 -2.244550
v -1.434403 9.904048 -2.244550
v -3.656625 9.904048 -2.244550
v -5.878848 9.904048 -2.244550
v -8.101070 9.904048 -2.244550
v -10.323293 9.904048 -2.244550
v -12.545514 9.904048 -2.244550
v 7.454486 7.681826 -2.244550
v 5.232264 7.681826 -2.244550
v 3.010042 7.681826 -2.244550
v 0.787819 7.681826 -2.244550
v -1.434403 7.681826 -2.244550
v -3.656625 7.681826 -2.244550
v -5.878848 7.681826 -2.244550
v -8.101070 7.681826 -2.244550
v -10.323293 7.681826 -2.244550
v -12.545514 7.681826 -2.244550
v 7.454486 5.459604 -2.244550
v 5.232264 5.459604 -2.244550
v 3.010042 5.459604 -2.244550
v 0.787819 5.459604 -2.244550
v -1.434403 5.459604 -2.244550
v -3.656625 5.459604 -2.244550
v -5.878848 5.459604 -2.244550
v -8.101070 5.459604 -2.244550
v -10.323293 5.459604 -2.244550
v -12.545514 5.459604 -2.244550
v 7.454486 3.237382 -2.244550
v 5.232264 3.237382 -2.244550
v 3.010042 3.237382 -2.244550
v 0.787819 3.237382 -2.244550
v -1.434403 3.237382 -2.244550
v -3.656625 3.237382 -2.244550
v -5.878848 3.237382 -2.244550
v -8.101070 3.237382 -2.244550
v -10.323293 3.237382 -2.244550
v -12.545514 3.237382 -2.244550
v 7.454486 1.015159 -2.244550
v 5.232264 1.015159 -2.244550
v 3.010042 1.015159 -2.244550
v 0.787819 1.015159 -2.244550
v -1.434403 1.015159 -2.244550
v -3.656625 1.015159 -2.244550
v -5.878848 1.015159 -2.244550
v -8.101070 1.015159 -2.244550
v -10.323293 1.015159 -2.244550
v -12.545514 1.015159 -2.244550
v 7.454486 -1.207063 -2.244550
v 5.232264 -1.207063 -2.244550
v 3.010042 -1.207063 -2.244550
v 0.787819 -1.207063 -2.244550
v -1.434403 -1.207063 -2.244550
v -3.656625 -1.207063 -2.244550
v -5.878848 -1.207063 -2.244550
v -8.101070 -1.207063 -2.244550
v -10.323293 -1.207063 -2.244550
v -12.545514 -1.207063 -2.244550
v 7.454486 -3.429285 -2.244550
v 5.232264 -3.429285 -2.244550
v 3.010042 -3.429285 -2.244550
v 0.787819 -3.429285 -2.244550
v -1.434403 -3.429285 -2.244550
v -3.656625 -3.429285 -2.244550
v -5.878848 -3.429285 -2.244550
v -8.101070 -3.429285 -2.244550
v -10.323293 -3.429285 -2.244550
v -12.545514 -3.429285 -2.244550
v 7.454486 -5.651507 -2.244550
v 5.232264 -5.651507 -2.244550
v 3.010042 -5.651507 -2.244550
v 0.787819 -5.651507 -2.244550
v -1.434403 -5.651507 -2.244550
v -3.656625 -5.651507 -2.244550
v -5.878848 -5.651507 -2.244550
v -8.101070 -5.651507 -2.244550
v -10.323293 -5.651507 -2.244550
v -12.545514 -5.651507 -2.244550
v 7.454486 -7.873730 -2.244550
v 5.232264 -7.873730 -2.244550
v 3.010042 -7.873730 -2.244550
v 0.787819 -7.873730 -2.244550
v -1.434403 -7.873730 -2.244550
v -3.656625 -7.873730 -2.244550
v -5.878848 -7.873730 -2.244550
v -8.101070 -7.873730 -2.244550
v -10.323293 -7.873730 -2.244550
v -12.545514 -7.873730 -2.244550
vt 0.1115 0.0001
vt 0.0004 0.1112
vt 0.0004 0.0001
vt 0.2225 0.0002
vt 0.1115 0.1112
vt 0.3336 0.0002
vt 0.2225 0.1112
vt 0.4446 0.0003
vt 0.3336 0.1113
vt 0.5557 0.0003
vt 0.4446 0.1113
vt 0.6667 0.0003
vt 0.5557 0.1113
vt 0.7778 0.0004
vt 0.6667 0.1114
vt 0.8888 0.0004
vt 0.7778 0.1114
vt 0.9999 0.0004
vt 0.8888 0.1115
vt 0.0004 0.2222
vt 0.1114 0.2222
vt 0.2225 0.2223
vt 0.3335 0.2223
vt 0.4446 0.2224
vt 0.5556 0.2224
vt 0.6667 0.2224
vt 0.7777 0.2225
vt 0.9999 0.1115
vt 0.8888 0.2225
vt 0.0003 0.3333
vt 0.1114 0.3333
vt 0.2224 0.3333
vt 0.3335 0.3334
vt 0.4445 0.3334
vt 0.5556 0.3334
vt 0.6666 0.3335
vt 0.7777 0.3335
vt 0.9998 0.2225
vt 0.8887 0.3336
vt 0.0003 0.4443
vt 0.1113 0.4443
vt 0.2224 0.4444
vt 0.3334 0.4444
vt 0.4445 0.4445
vt 0.5555 0.4445
vt 0.6666 0.4445
vt 0.7776 0.4446
vt 0.9998 0.3336
vt 0.8887 0.4446
vt 0.0003 0.5554
vt 0.1113 0.5554
vt 0.2224 0.5554
vt 0.3334 0.5555
vt 0.4445 0.5555
vt 0.5555 0.5555
vt 0.6666 0.5556
vt 0.7776 0.5556
vt 0.9997 0.4446
vt 0.8887 0.5557
vt 0.0002 0.6664
vt 0.1113 0.6664
vt 0.2223 0.6665
vt 0.3334 0.6665
vt 0.4444 0.6666
vt 0.5555 0.6666
vt 0.6665 0.6666
vt 0.7776 0.6667
vt 0.9997 0.5557
vt 0.8886 0.6667
vt 0.0002 0.7775
vt 0.1112 0.7775
vt 0.2223 0.7775
vt 0.3333 0.7776
vt 0.4444 0.7776
vt 0.5554 0.7776
vt 0.6665 0.7777
vt 0.7775 0.7777
vt 0.9997 0.6667
vt 0.8886 0.7778
vt 0.0001 0.8885
vt 0.1112 0.8885
vt 0.2222 0.8886
vt 0.3333 0.8886
vt 0.4443 0.8887
vt 0.5554 0.8887
vt 0.6664 0.8887
vt 0.7775 0.8888
vt 0.9996 0.7778
vt 0.8885 0.8888
vt 0.0001 0.9996
vt 0.1112 0.9996
vt 0.2222 0.9996
vt 0.3333 0.9997
vt 0.4443 0.9997
vt 0.5554 0.9997
vt 0.6664 0.9998
vt 0.7775 0.9998
vt 0.9996 0.8888
vt 0.8885 0.9999
vt 0.9996 0.9999
vn 0.0000 0.0000 1.0000
s off
f 2/1/1 11/2/1 1/3/1
f 3/4/1 12/5/1 2/1/1
f 4/6/1 13/7/1 3/4/1
f 5/8/1 14/9/1 4/6/1
f 6/10/1 15/11/1 5/8/1
f 7/12/1 16/13/1 6/10/1
f 8/14/1 17/15/1 7/12/1
f 9/16/1 18/17/1 8/14/1
f 10/18/1 19/19/1 9/16/1
f 12/5/1 21/20/1 11/2/1
f 13/7/1 22/21/1 12/5/1
f 14/9/1 23/22/1 13/7/1
f 15/11/1 24/23/1 14/9/1
f 16/13/1 25/24/1 15/11/1
f 17/15/1 26/25/1 16/13/1
f 18/17/1 27/26/1 17/15/1
f 19/19/1 28/27/1 18/17/1
f 20/28/1 29/29/1 19/19/1
f 22/21/1 31/30/1 21/20/1
f 23/22/1 32/31/1 22/21/1
f 24/23/1 33/32/1 23/22/1
f 25/24/1 34/33/1 24/23/1
f 26/25/1 35/34/1 25/24/1
f 27/26/1 36/35/1 26/25/1
f 28/27/1 37/36/1 27/26/1
f 29/29/1 38/37/1 28/27/1
f 30/38/1 39/39/1 29/29/1
f 32/31/1 41/40/1 31/30/1
f 33/32/1 42/41/1 32/31/1
f 34/33/1 43/42/1 33/32/1
f 35/34/1 44/43/1 34/33/1
f 36/35/1 45/44/1 35/34/1
f 37/36/1 46/45/1 36/35/1
f 38/37/1 47/46/1 37/36/1
f 39/39/1 48/47/1 38/37/1
f 40/48/1 49/49/1 39/39/1
f 42/41/1 51/50/1 41/40/1
f 43/42/1 52/51/1 42/41/1
f 44/43/1 53/52/1 43/42/1
f 45/44/1 54/53/1 44/43/1
f 46/45/1 55/54/1 45/44/1
f 47/46/1 56/55/1 46/45/1
f 48/47/1 57/56/1 47/46/1
f 49/49/1 58/57/1 48/47/1
f 50/58/1 59/59/1 49/49/1
f 52/51/1 61/60/1 51/50/1
f 53/52/1 62/61/1 52/51/1
f 54/53/1 63/62/1 53/52/1
f 55/54/1 64/63/1 54/53/1
f 56/55/1 65/64/1 55/54/1
f 57/56/1 66/65/1 56/55/1
f 58/57/1 67/66/1 57/56/1
f 59/59/1 68/67/1 58/57/1
f 60/68/1 69/69/1 59/59/1
f 62/61/1 71/70/1 61/60/1
f 63/62/1 72/71/1 62/61/1
f 64/63/1 73/72/1 63/62/1
f 65/64/1 74/73/1 64/63/1
f 66/65/1 75/74/1 65/64/1
f 67/66/1 76/75/1 66/65/1
f 68/67/1 77/76/1 67/66/1
f 69/69/1 78/77/1 68/67/1
f 70/78/1 79/79/1 69/69/1
f 72/71/1 81/80/1 71/70/1
f 73/72/1 82/81/1 72/71/1
f 74/73/1 83/82/1 73/72/1
f 75/74/1 84/83/1 74/73/1
f 76/75/1 85/84/1 75/74/1
f 77/76/1 86/85/1 76/75/1
f 78/77/1 87/86/1 77/76/1
f 79/79/1 88/87/1 78/77/1
f 80/88/1 89/89/1 79/79/1
f 82/81/1 91/90/1 81/80/1
f 83/82/1 92/91/1 82/81/1
f 84/83/1 93/92/1 83/82/1
f 85/84/1 94/93/1 84/83/1
f 86/85/1 95/94/1 85/84/1
f 87/86/1 96/95/1 86/85/1
f 88/87/1 97/96/1 87/86/1
f 89/89/1 98/97/1 88/87/1
f 90/98/1 99/99/1 89/89/1
f 2/1/1 12/5/1 11/2/1
f 3/4/1 13/7/1 12/5/1
f 4/6/1 14/9/1 13/7/1
f 5/8/1 15/11/1 14/9/1
f 6/10/1 16/13/1 15/11/1
f 7/12/1 17/15/1 16/13/1
f 8/14/1 18/17/1 17/15/1
f 9/16/1 19/19/1 18/17/1
f 10/18/1 20/28/1 19/19/1
f 12/5/1 22/21/1 21/20/1
f 13/7/1 23/22/1 22/21/1
f 14/9/1 24/23/1 23/22/1
f 15/11/1 25/24/1 24/23/1
f 16/13/1 26/25/1 25/24/1
f 17/15/1 27/26/1 26/25/1
f 18/17/1 28/27/1 27/26/1
f 19/19/1 29/29/1 28/27/1
f 20/28/1 30/38/1 29/29/1
f 22/21/1 32/31/1 31/30/1
f 23/22/1 33/32/1 32/31/1
f 24/23/1 34/33/1 33/32/1
f 25/24/1 35/34/1 34/33/1
f 26/25/1 36/35/1 35/34/1
f 27/26/1 37/36/1 36/35/1
f 28/27/1 38/37/1 37/36/1
f 29/29/1 39/39/1 38/37/1
f 30/38/1 40/48/1 39/39/1
f 32/31/1 42/41/1 41/40/1
f 33/32/1 43/42/1 42/41/1
f 34/33/1 44/43/1 43/42/1
f 35/34/1 45/44/1 44/43/1
f 36/35/1 46/45/1 45/44/1
f 37/36/1 47/46/1 46/45/1
f 38/37/1 48/47/1 47/46/1
f 39/39/1 49/49/1 48/47/1
f 40/48/1 50/58/1 49/49/1
f 42/41/1 52/51/1 51/50/1
f 43/42/1 53/52/1 52/51/1
f 44/43/1 54/53/1 53/52/1
f 45/44/1 55/54/1 54/53/1
f 46/45/1 56/55/1 55/54/1
f 47/46/1 57/56/1 56/55/1
f 48/47/1 58/57/1 57/56/1
f 49/49/1 59/59/1 58/57/1
f 50/58/1 60/68/1 59/59/1
f 52/51/1 62/61/1 61/60/1
f 53/52/1 63/62/1 62/61/1
f 54/53/1 64/63/1 63/62/1
f 55/54/1 65/64/1 64/63/1
f 56/55/1 66/65/1 65/64/1
f 57/56/1 67/66/1 66/65/1
f 58/57/1 68/67/1 67/66/1
f 59/59/1 69/69/1 68/67/1
f 60/68/1 70/78/1 69/69/1
f 62/61/1 72/71/1 71/70/1
f 63/62/1 73/72/1 72/71/1
f 64/63/1 74/73/1 73/72/1
f 65/64/1 75/74/1 74/73/1
f 66/65/1 76/75/1 75/74/1
f 67/66/1 77/76/1 76/75/1
f 68/67/1 78/77/1 77/76/1
f 69/69/1 79/79/1 78/77/1
f 70/78/1 80/88/1 79/79/1
f 72/71/1 82/81/1 81/80/1
f 73/72/1 83/82/1 82/81/1
f 74/73/1 84/83/1 83/82/1
f 75/74/1 85/84/1 84/83/1
f 76/75/1 86/85/1 85/84/1
f 77/76/1 87/86/1 86/85/1
f 78/77/1 88/87/1 87/86/1
f 79/79/1 89/89/1 88/87/1
f 80/88/1 90/98/1 89/89/1
f 82/81/1 92/91/1 91/90/1
f 83/82/1 93/92/1 92/91/1
f 84/83/1 94/93/1 93/92/1
f 85/84/1 95/94/1 94/93/1
f 86/85/1 96/95/1 95/94/1
f 87/86/1 97/96/1 96/95/1
f 88/87/1 98/97/1 97/96/1
f 89/89/1 99/99/1 98/97/1
f 90/98/1 100/100/1 99/99/1
